<svg width="30" height="30" viewBox="0 0 30 30" fill="none" xmlns="http://www.w3.org/2000/svg">
<path d="M15.4697 25.3106H5.58691C5.34863 25.3106 5.12011 25.2159 4.95162 25.0474C4.78313 24.8789 4.68848 24.6504 4.68848 24.4121V14.5293C4.68848 13.1135 4.96734 11.7115 5.50915 10.4035C6.05096 9.09544 6.8451 7.90693 7.84623 6.9058C8.84735 5.90467 10.0359 5.11053 11.3439 4.56872C12.6519 4.02691 14.0539 3.74805 15.4697 3.74805H15.4697C16.8855 3.74805 18.2875 4.02691 19.5955 4.56872C20.9036 5.11053 22.0921 5.90467 23.0932 6.9058C24.0944 7.90693 24.8885 9.09545 25.4303 10.4035C25.9721 11.7115 26.251 13.1135 26.251 14.5293V14.5293C26.251 17.3887 25.1151 20.1309 23.0932 22.1528C21.0714 24.1747 18.3291 25.3106 15.4697 25.3106Z" stroke="#02569C" stroke-width="1.5" stroke-linecap="round" stroke-linejoin="round"/>
<path d="M15.4697 16.1719C16.1169 16.1719 16.6416 15.6472 16.6416 15C16.6416 14.3528 16.1169 13.8281 15.4697 13.8281C14.8225 13.8281 14.2979 14.3528 14.2979 15C14.2979 15.6472 14.8225 16.1719 15.4697 16.1719Z" fill="#02569C"/>
<path d="M9.84375 16.1719C10.491 16.1719 11.0156 15.6472 11.0156 15C11.0156 14.3528 10.491 13.8281 9.84375 13.8281C9.19654 13.8281 8.67188 14.3528 8.67188 15C8.67188 15.6472 9.19654 16.1719 9.84375 16.1719Z" fill="#02569C"/>
<path d="M21.0947 16.1719C21.7419 16.1719 22.2666 15.6472 22.2666 15C22.2666 14.3528 21.7419 13.8281 21.0947 13.8281C20.4475 13.8281 19.9229 14.3528 19.9229 15C19.9229 15.6472 20.4475 16.1719 21.0947 16.1719Z" fill="#02569C"/>
</svg>
