<svg width="26" height="26" viewBox="0 0 26 26" fill="none" xmlns="http://www.w3.org/2000/svg">
<path d="M12.9993 17.875C17.4866 17.875 21.1243 14.2373 21.1243 9.75C21.1243 5.26269 17.4866 1.625 12.9993 1.625C8.51195 1.625 4.87427 5.26269 4.87427 9.75C4.87427 14.2373 8.51195 17.875 12.9993 17.875Z" stroke="#02569C" stroke-linecap="round" stroke-linejoin="round"/>
<path d="M12.9993 14.625C15.6917 14.625 17.8743 12.4424 17.8743 9.75C17.8743 7.05761 15.6917 4.875 12.9993 4.875C10.3069 4.875 8.12427 7.05761 8.12427 9.75C8.12427 12.4424 10.3069 14.625 12.9993 14.625Z" stroke="#02569C" stroke-linecap="round" stroke-linejoin="round"/>
<path d="M17.875 16.2495V24.375L12.9993 21.9375L8.125 24.375V16.2502" stroke="#02569C" stroke-linecap="round" stroke-linejoin="round"/>
</svg>
