<svg width="26" height="26" viewBox="0 0 26 26" fill="none" xmlns="http://www.w3.org/2000/svg">
<path d="M21.9375 8.125H4.0625C3.61377 8.125 3.25 8.48877 3.25 8.9375V12.1875C3.25 12.6362 3.61377 13 4.0625 13H21.9375C22.3862 13 22.75 12.6362 22.75 12.1875V8.9375C22.75 8.48877 22.3862 8.125 21.9375 8.125Z" stroke="#02569C" stroke-width="1.5" stroke-linecap="round" stroke-linejoin="round"/>
<path d="M21.125 13V20.3125C21.125 20.528 21.0394 20.7347 20.887 20.887C20.7347 21.0394 20.528 21.125 20.3125 21.125H5.6875C5.47201 21.125 5.26535 21.0394 5.11298 20.887C4.9606 20.7347 4.875 20.528 4.875 20.3125V13" stroke="#02569C" stroke-width="1.5" stroke-linecap="round" stroke-linejoin="round"/>
<path d="M13 8.125V21.125" stroke="#02569C" stroke-width="1.5" stroke-linecap="round" stroke-linejoin="round"/>
<path d="M17.5962 6.97601C16.4471 8.12506 13 8.12506 13 8.12506C13 8.12506 13 4.67791 14.149 3.52886C14.6063 3.07217 15.2261 2.81573 15.8723 2.81592C16.5186 2.8161 17.1383 3.0729 17.5952 3.52985C18.0522 3.9868 18.309 4.6065 18.3091 5.25272C18.3093 5.89895 18.0529 6.5188 17.5962 6.97601V6.97601Z" stroke="#02569C" stroke-width="1.5" stroke-linecap="round" stroke-linejoin="round"/>
<path d="M8.40386 6.97601C9.55291 8.12506 13.0001 8.12506 13.0001 8.12506C13.0001 8.12506 13.0001 4.67791 11.851 3.52886C11.3938 3.07217 10.7739 2.81573 10.1277 2.81592C9.4815 2.8161 8.8618 3.0729 8.40485 3.52985C7.9479 3.9868 7.6911 4.6065 7.69092 5.25272C7.69073 5.89895 7.94717 6.5188 8.40386 6.97601V6.97601Z" stroke="#02569C" stroke-width="1.5" stroke-linecap="round" stroke-linejoin="round"/>
</svg>
