<svg width="26" height="26" viewBox="0 0 26 26" fill="none" xmlns="http://www.w3.org/2000/svg">
<path d="M21.9385 7.3125H4.06348C3.61475 7.3125 3.25098 7.67627 3.25098 8.125V21.125C3.25098 21.5737 3.61475 21.9375 4.06348 21.9375H21.9385C22.3872 21.9375 22.751 21.5737 22.751 21.125V8.125C22.751 7.67627 22.3872 7.3125 21.9385 7.3125Z" stroke="#02569C" stroke-width="1.5" stroke-linecap="round" stroke-linejoin="round"/>
<path d="M17.0625 21.9375V5.6875C17.0625 5.25652 16.8913 4.8432 16.5865 4.53845C16.2818 4.2337 15.8685 4.0625 15.4375 4.0625H10.5625C10.1315 4.0625 9.7182 4.2337 9.41345 4.53845C9.10871 4.8432 8.9375 5.25652 8.9375 5.6875V21.9375" stroke="#02569C" stroke-width="1.5" stroke-linecap="round" stroke-linejoin="round"/>
</svg>
