<svg width="26" height="26" viewBox="0 0 26 26" fill="none" xmlns="http://www.w3.org/2000/svg">
<path d="M8.9375 16.25C11.8543 16.25 14.2188 13.8855 14.2188 10.9688C14.2188 8.052 11.8543 5.6875 8.9375 5.6875C6.02075 5.6875 3.65625 8.052 3.65625 10.9688C3.65625 13.8855 6.02075 16.25 8.9375 16.25Z" stroke="#02569C" stroke-linecap="round" stroke-linejoin="round"/>
<path d="M15.7852 5.88421C16.5116 5.67955 17.2734 5.63293 18.0193 5.74748C18.7652 5.86204 19.478 6.13511 20.1095 6.54831C20.741 6.96151 21.2766 7.50524 21.6803 8.14288C22.084 8.78052 22.3463 9.49726 22.4496 10.2448C22.553 10.9924 22.4949 11.7534 22.2794 12.4767C22.0639 13.1999 21.6958 13.8686 21.2001 14.4376C20.7044 15.0066 20.0925 15.4628 19.4056 15.7755C18.7187 16.0881 17.9728 16.2499 17.2182 16.25" stroke="#02569C" stroke-linecap="round" stroke-linejoin="round"/>
<path d="M1.625 20.0481C2.44982 18.8749 3.54483 17.9173 4.81757 17.2562C6.0903 16.5952 7.50341 16.2501 8.93758 16.25C10.3718 16.2499 11.7849 16.595 13.0577 17.2559C14.3305 17.9169 15.4255 18.8744 16.2505 20.0475" stroke="#02569C" stroke-linecap="round" stroke-linejoin="round"/>
<path d="M17.2168 16.25C18.6511 16.249 20.0645 16.5936 21.3374 17.2546C22.6103 17.9156 23.7052 18.8737 24.5293 20.0475" stroke="#02569C" stroke-linecap="round" stroke-linejoin="round"/>
</svg>
