<svg width="663" height="663" viewBox="0 0 663 663" fill="none" xmlns="http://www.w3.org/2000/svg">
<g clip-path="url(#clip0)">
<rect width="663" height="663" rx="331.5" fill="white"/>
<path d="M-14.5898 1059.54H733.653V-63.0002H-14.5898V1059.54Z" fill="url(#paint0_linear)"/>
<path d="M100.338 553.617C100.338 637.972 168.711 706.355 253.053 706.355C337.398 706.355 405.771 637.972 405.771 553.617C405.771 469.262 337.398 400.875 253.053 400.875C168.711 400.875 100.338 469.262 100.338 553.617Z" fill="url(#paint1_linear)"/>
<g opacity="0.5">
<g opacity="0.5">
<path opacity="0.5" d="M135.897 553.604C135.897 475.265 194.874 410.739 270.836 401.923C264.999 401.25 259.076 400.862 253.058 400.862C168.715 400.862 100.343 469.245 100.343 553.604C100.343 637.959 168.715 706.346 253.058 706.346C259.076 706.346 264.999 705.954 270.836 705.281C194.874 696.465 135.897 631.939 135.897 553.604Z" fill="#B41DA7"/>
</g>
</g>
<g opacity="0.199997">
<g opacity="0.199997">
<path opacity="0.199997" d="M386.411 575.638C373.75 583.182 350.943 584.507 334.286 585.476C331.397 585.643 328.659 585.804 326.137 585.982C325.464 586.028 324.481 586.085 323.249 586.149C299.9 587.421 268.232 590.548 262.726 602.962C260.945 606.99 262.045 611.503 266.002 616.38C269.297 620.419 274.29 621.997 280.216 621.997C292.948 621.997 309.975 614.702 323.569 608.878C329.57 606.303 334.752 604.084 338.036 603.197C346.747 600.85 355.936 598.919 364.825 597.056C377.219 594.452 389.791 591.806 401.85 587.909C402.163 586.548 402.491 585.195 402.769 583.816C390.247 588.041 377.073 590.83 364.092 593.551C355.156 595.428 345.914 597.369 337.11 599.745C333.577 600.696 328.288 602.965 322.163 605.587C304.355 613.217 277.452 624.754 268.777 614.125C265.692 610.324 264.788 607.151 266.002 604.408C269.485 596.55 288.81 591.606 323.445 589.722C324.702 589.658 325.703 589.601 326.39 589.551C328.897 589.373 331.618 589.216 334.492 589.049C352.463 588.005 374.833 586.705 388.242 578.708C392.305 576.29 396.095 573.397 399.759 570.608C401.53 569.258 403.346 567.901 405.184 566.58C405.315 565.041 405.454 563.509 405.536 561.956C402.805 563.812 400.151 565.807 397.591 567.762C394.004 570.494 390.3 573.319 386.411 575.638ZM136.309 504.123C127.284 503.653 118.305 502.763 109.409 501.637C108.996 502.781 108.622 503.942 108.237 505.096C117.447 506.278 126.753 507.212 136.12 507.7C216.751 511.889 298.151 488.305 377.087 464.507C376.35 463.481 375.62 462.452 374.854 461.444C296.588 485.035 215.9 508.305 136.309 504.123ZM197.679 613.121C198.26 613.79 198.466 614.503 198.328 615.361C198.15 616.526 197.184 617.691 195.457 618.816C189.791 622.531 182.497 623.002 175.442 623.454C174.199 623.532 172.956 623.614 171.727 623.71C155.469 624.986 139.699 629.805 125.51 637.545C126.169 638.543 126.842 639.533 127.526 640.519C141.195 633.118 156.37 628.501 172.005 627.276C173.219 627.183 174.441 627.101 175.673 627.023C183.188 626.542 190.966 626.04 197.423 621.812C200.023 620.099 201.519 618.118 201.864 615.92C202.167 614.015 201.654 612.241 200.379 610.777C197.754 607.746 192.426 606.716 188.933 606.787C163.728 607.151 139.332 612.729 115.545 620.074C116.072 621.16 116.646 622.225 117.201 623.304C140.536 616.134 164.426 610.72 188.979 610.364C192.059 610.314 196.059 611.247 197.679 613.121ZM296.111 536.958C273.278 538.144 249.723 537.492 226.947 536.862C185.029 535.704 141.715 534.543 100.616 544.691C100.545 545.923 100.512 547.167 100.47 548.406C141.398 538.108 184.833 539.277 226.851 540.438C249.691 541.076 273.307 541.724 296.296 540.531C322.864 539.152 356.666 534.318 400.661 514.314C400.365 513.203 400.041 512.102 399.72 511.002C364.807 526.92 331.504 535.116 296.111 536.958ZM192.583 593.159C232.471 590.046 266.063 578.238 301.62 565.742C313.996 561.393 326.793 556.894 339.981 552.741C361.004 546.127 383.049 542.258 405.087 539.295C404.977 538.101 404.842 536.919 404.706 535.733C382.476 538.725 360.213 542.622 338.905 549.329C325.66 553.496 312.835 558.006 300.438 562.366C265.105 574.786 231.727 586.516 192.302 589.59C181.924 590.402 171.236 590.997 160.904 591.57C142.822 592.575 124.481 593.608 106.307 595.827C106.642 596.988 106.955 598.16 107.315 599.311C125.204 597.152 143.278 596.137 161.1 595.143C171.456 594.566 182.159 593.968 192.583 593.159ZM139.197 451.808C138.128 453.009 137.074 454.223 136.041 455.456C158.6 455.153 181.176 453.365 203.677 450.081C221.527 447.48 240.331 443.783 256.981 434.458C265.237 429.834 272.74 423.904 280.002 418.172C284.913 414.293 289.974 410.332 295.231 406.774C293.739 406.347 292.25 405.908 290.736 405.524C286.278 408.68 281.975 412.056 277.783 415.366C270.636 421.011 263.242 426.849 255.232 431.338C239.092 440.374 220.669 443.99 203.16 446.54C181.881 449.65 160.537 451.388 139.197 451.808ZM336.081 663.676L329.866 663.794C280.013 664.713 228.536 665.738 186.386 691.014C187.686 691.641 189.011 692.225 190.329 692.82C231.289 669.243 281.388 668.267 329.934 667.37L336.152 667.256C342.677 667.128 349.215 666.928 355.744 666.629C357.097 665.396 358.408 664.118 359.718 662.835C351.851 663.256 343.959 663.523 336.081 663.676ZM129.852 475.414C181.927 480.169 224.504 474.577 260.04 458.309C270.447 453.547 280.487 447.741 290.199 442.127C300.349 436.26 310.841 430.191 321.675 425.364C324.513 424.103 327.416 422.96 330.322 421.834C329.022 421.068 327.722 420.302 326.394 419.576C324.332 420.406 322.252 421.193 320.225 422.098C309.213 426.999 298.636 433.111 288.411 439.024C278.766 444.599 268.802 450.362 258.552 455.057C223.603 471.057 181.596 476.557 130.183 471.852C128.26 471.674 126.351 471.463 124.438 471.264C123.719 472.39 122.982 473.501 122.291 474.644C124.805 474.919 127.323 475.182 129.852 475.414ZM269.745 643.679C241.635 645.097 212.57 646.561 185.645 655.512C174.633 659.174 164.095 664.086 153.87 669.66C152.905 668.834 151.936 668.018 150.992 667.167C161.741 661.24 172.845 655.996 184.52 652.117C211.904 643.009 241.215 641.531 269.564 640.106C283.503 639.401 297.916 638.674 311.909 637.05C345.64 633.132 370.727 622.051 396.134 607.033C395.457 608.843 394.752 610.641 394.011 612.419C369.573 626.482 344.977 636.808 312.319 640.601C298.215 642.24 283.738 642.97 269.745 643.679Z" fill="#B41DA7"/>
</g>
</g>
<g opacity="0.0500031">
<g opacity="0.0500031">
<path opacity="0.0500031" d="M610.491 282.101C566.553 300.303 516.002 279.362 497.803 235.417C479.604 191.473 500.542 140.914 544.48 122.709C588.417 104.51 638.968 125.451 657.167 169.396C675.366 213.34 654.429 263.899 610.491 282.101Z" fill="white"/>
</g>
</g>
<path d="M547.312 129.572C507.075 146.238 487.968 192.373 504.635 232.62C521.299 272.864 567.431 291.974 607.664 275.307C647.905 258.637 667.012 212.499 650.345 172.255C637.766 141.882 608.405 123.545 577.46 123.545C567.402 123.545 557.181 125.482 547.312 129.572Z" fill="url(#paint2_linear)"/>
<g opacity="0.5">
<g opacity="0.5">
<g opacity="0.5">
<g opacity="0.5">
<g opacity="0.5">
<path opacity="0.5" d="M521.59 225.612C506.115 188.239 521.501 145.801 555.997 126.584C553.08 127.414 550.178 128.401 547.307 129.587C507.07 146.261 487.963 192.396 504.63 232.639C521.294 272.883 567.426 291.993 607.663 275.323C610.534 274.137 613.283 272.78 615.933 271.301C577.953 282.112 537.068 262.984 521.59 225.612Z" fill="url(#paint3_linear)"/>
</g>
</g>
</g>
</g>
</g>
<g opacity="0.5">
<g opacity="0.5">
<g opacity="0.5">
<g opacity="0.5">
<g opacity="0.5">
<path opacity="0.5" d="M563.917 264.639C570.666 261.647 573.59 253.084 580.343 250.092C583.164 248.841 586.333 248.724 589.36 248.129C614.864 243.135 626.31 206.411 652.273 205.264C653.58 205.203 654.934 205.232 656.294 205.26C656.455 200.747 656.248 196.199 655.618 191.646C654.439 192.711 653.303 193.858 652.067 194.841C644.157 201.107 632.372 200.021 624.056 205.734C618.579 209.496 615.37 215.665 611.185 220.823C600.415 234.088 583.772 239.933 567.643 243.591C558.803 245.596 531.362 246.654 517.886 254.088C523.014 260.008 528.94 265.059 535.437 269.148C537.723 266.815 540.07 265.291 545.298 264.949C551.577 264.539 557.792 267.357 563.917 264.639Z" fill="url(#paint4_linear)"/>
</g>
</g>
</g>
</g>
</g>
<g opacity="0.5">
<g opacity="0.5">
<g opacity="0.5">
<g opacity="0.5">
<g opacity="0.5">
<path opacity="0.5" d="M655.608 213.269C645.785 216.261 634.919 221.989 632.277 224.785C630.083 227.104 628.234 229.743 625.937 231.959C622.618 235.165 618.341 237.533 616.044 241.537C614.996 243.357 614.412 245.452 613.116 247.104C607.834 253.858 595.483 249.039 589.407 255.09C588.663 255.831 588.033 256.779 588.011 257.833C587.958 260.562 591.555 261.627 594.279 261.502C600.003 261.235 605.541 259.486 611.004 257.751C616.076 256.141 621.144 254.531 626.215 252.921C632.483 250.93 639.236 248.59 642.872 243.108C646.209 238.078 647.833 234.848 650.554 232.123C653.004 226.089 654.703 219.755 655.608 213.269Z" fill="url(#paint5_linear)"/>
</g>
</g>
</g>
</g>
</g>
<g opacity="0.5">
<g opacity="0.5">
<g opacity="0.5">
<g opacity="0.5">
<g opacity="0.5">
<path opacity="0.5" d="M629.483 164.463C628.222 168.093 627.617 172.506 624.283 174.416C619.832 176.962 614.457 172.998 609.329 172.959C597.679 172.873 595.101 190.765 584.666 195.944C576.247 200.115 563.86 195.353 558.101 202.773C556.092 205.359 555.409 209.028 552.691 210.851C549.24 213.167 544.671 211.261 540.81 209.729C527.512 204.454 512.301 204.8 498.967 209.9C499.697 217.516 501.545 225.156 504.629 232.597C505.58 234.898 506.642 237.121 507.781 239.283C510.396 237.534 512.657 235.369 514.099 232.594C515.396 230.09 515.994 227.176 517.853 225.049C522.868 219.318 532.238 223.197 538.403 227.66C544.575 232.124 553.062 236.968 559.088 232.316C564.163 228.394 563.65 220.073 568.408 215.77C576.738 208.24 592.074 219.4 600.682 212.191C606.964 206.933 604.699 195.503 611.192 190.509C616.195 186.662 623.806 188.753 629.241 185.543C637.176 180.859 636.866 167.306 645.446 163.943C645.684 163.851 645.933 163.794 646.183 163.719C644.053 159.929 641.649 156.378 638.999 153.069C634.644 155.637 631.143 159.68 629.483 164.463Z" fill="url(#paint6_linear)"/>
</g>
</g>
</g>
</g>
</g>
<g opacity="0.5">
<g opacity="0.5">
<g opacity="0.5">
<g opacity="0.5">
<g opacity="0.5">
<path opacity="0.5" d="M498.909 195.814C504.625 190.749 510.024 185.385 514.897 183.298C520.801 180.765 528.697 181.339 532.39 186.596C533.804 188.609 534.484 191.113 536.151 192.922C539.499 196.559 545.71 195.928 549.667 192.965C553.617 190.001 555.899 185.378 558.186 180.997C559.147 179.155 560.241 177.221 562.086 176.27C565.405 174.556 569.6 176.729 573.126 175.504C576.638 174.282 578.23 170.147 578.418 166.432C578.607 162.72 577.859 158.937 578.671 155.307C580.167 148.629 586.731 144.087 593.43 142.677C600.125 141.27 607.06 142.331 613.866 143.043C619.407 143.62 624.967 143.948 630.533 144.055C620.287 134.748 607.783 128.347 594.388 125.39C592.034 130.737 589.676 135.87 584.359 137.49C580.684 138.612 576.278 137.622 573.247 139.984C569.924 142.573 570.038 147.849 567.086 150.848C560.394 157.648 548.324 146.256 539.738 150.417C536.173 152.141 534.217 156.201 530.699 158.018C525.659 160.622 518.978 158.25 513.098 156.896C505.024 168.341 500.099 181.791 498.909 195.814Z" fill="url(#paint7_linear)"/>
</g>
</g>
</g>
</g>
</g>
<g opacity="0.0500031">
<g opacity="0.0500031">
<path opacity="0.0500031" d="M272.706 233.429C217.913 257.611 153.669 232.695 129.49 177.897C105.315 123.096 130.224 58.8411 185.016 34.6587C239.809 10.4798 304.054 35.3889 328.229 90.1938C352.408 144.992 327.499 209.25 272.706 233.429Z" fill="white"/>
</g>
</g>
<path d="M186.192 75.4765C136.015 97.6179 113.286 156.252 135.424 206.441C157.562 256.626 216.19 279.358 266.371 257.213C316.545 235.072 339.274 176.438 317.136 126.249C300.746 89.1011 264.373 66.9954 226.227 66.9989C212.839 66.9989 199.231 69.7203 186.192 75.4765Z" fill="url(#paint8_linear)"/>
<path d="M203.406 69.7021C193.954 79.2839 184.894 89.2789 174.473 97.7814C163.935 106.384 152.036 113.255 139.393 118.274C137.203 122.238 135.276 126.338 133.645 130.559C145.618 124.578 157.2 117.811 168.248 110.263C180.713 101.742 192.501 92.2816 204.275 82.8352C210.835 77.567 217.399 72.3024 223.963 67.0342C217.121 67.191 210.237 68.0779 203.406 69.7021ZM213.147 95.0529C201.565 102.508 189.417 109.116 176.674 114.387C169.729 117.255 161.499 121.063 160.537 128.518C165.263 130.099 170.157 127.018 174.21 124.115C187.415 114.655 200.824 105.475 214.422 96.5846C224.219 90.1836 234.288 83.8504 245.535 80.6161C250.692 79.1308 256.037 78.3186 261.102 76.5483C262.352 76.1137 263.677 75.5473 265.023 74.9133C259.107 72.4092 252.96 70.4823 246.66 69.1536C235.922 78.2581 225.156 87.3163 213.147 95.0529ZM257.205 92.157C248.783 94.4473 239.989 95.199 231.606 97.6318C210.145 103.862 193.505 120.311 175.467 133.501C160.63 144.344 144.34 153.185 127.198 159.803C126.611 168.548 127.177 177.435 128.993 186.258C153.838 174.279 170.15 148.625 194.716 135.791C207.445 129.141 221.776 126.281 235.121 120.974C251.732 114.366 266.601 104.061 282.762 96.4207C285.918 94.9318 289.145 93.5604 292.4 92.2389C288.3 88.5914 283.945 85.2859 279.354 82.3829C272.427 86.5932 265.108 90.0091 257.205 92.157ZM270.344 135.136C254.513 147.19 243.223 165.299 225.27 173.876C212.203 180.121 197.206 180.509 183.156 184C165.815 188.306 150.44 197.147 136.131 207.929C140.077 216.485 145.077 224.229 150.935 231.057C178.287 218.939 208.253 212.688 237.35 205.001C268.727 196.709 300.402 186.112 325.592 165.662C325.51 152.472 322.8 139.086 317.137 126.245C315.56 122.669 313.775 119.246 311.842 115.955C296.997 120.489 282.595 125.807 270.344 135.136ZM264.859 119.705C261.622 121.084 258.459 123.467 255.781 125.725C249.762 130.812 244.527 136.963 237.251 140.333C227.001 145.081 214.899 143.101 203.983 146.022C186.603 150.67 175.121 166.567 161.752 178.61C152.969 186.521 142.883 192.944 132.071 197.713C132.829 199.993 133.695 202.255 134.631 204.51C136.042 203.459 137.434 202.401 138.795 201.322C154.233 189.107 168.974 174.849 187.789 169.053C201.33 164.879 216.441 165.31 228.678 158.164C240.834 151.065 248.231 137.512 260.55 130.698C262.954 129.369 274.015 123.713 273.456 120.364C273.239 119.075 271.829 118.644 270.166 118.644C268.26 118.644 266.02 119.21 264.859 119.705ZM263.15 222.33C244.345 234.665 227.592 251.585 205.757 256.964C200.913 258.153 195.924 258.734 190.898 259.133C201.394 263.137 212.563 265.363 223.924 265.641C253.028 242.509 281.495 218.255 316.112 208.62C318.48 203.583 320.446 198.362 321.942 193.001C302.176 202.465 281.47 210.319 263.15 222.33ZM243.786 214.316C236.72 215.523 229.629 216.959 222.57 218.619C209.71 221.643 196.964 225.404 184.687 229.871C177.775 232.382 167.129 235.2 158.945 239.353C163.23 243.303 167.831 246.844 172.689 249.95C177.493 246.274 181.998 242.552 185.332 240.785C194.431 236.236 204.222 233.419 214.119 231.274C225.619 228.785 240.574 227.641 249.246 218.683C252.483 215.334 248.658 214.18 245.542 214.18C244.904 214.18 244.299 214.227 243.786 214.316Z" fill="url(#paint9_linear)"/>
<g opacity="0.5">
<g opacity="0.5">
<g opacity="0.5">
<g opacity="0.5">
<g opacity="0.5">
<path opacity="0.5" d="M156.556 197.081C135.996 150.476 154.148 96.6042 197.025 71.4173C193.378 72.5465 189.752 73.8715 186.173 75.453C135.992 97.5945 113.263 156.229 135.405 206.417C157.546 256.602 216.171 279.335 266.348 257.19C269.927 255.612 273.354 253.824 276.644 251.89C229.142 266.59 177.12 243.686 156.556 197.081Z" fill="url(#paint10_linear)"/>
</g>
</g>
</g>
</g>
</g>
<path d="M305.83 106.858C308.152 109.982 310.314 113.273 312.315 116.714C329.581 112.272 340.703 111.435 342.338 115.14C343.973 118.84 335.831 126.502 320.916 136.266C301.211 149.185 269.642 165.809 233.137 181.92C196.657 198.02 163.098 210.135 140.272 215.983C123.006 220.422 111.863 221.273 110.232 217.572C108.597 213.864 116.713 206.216 131.629 196.449C130.436 192.652 129.467 188.837 128.723 185.019C78.2284 212.186 46.471 235.3 50.3138 244.009C54.153 252.715 92.6273 244.818 146.726 225.829C173.64 216.389 204.4 204.214 236.691 189.97C268.976 175.718 298.728 161.189 323.836 147.668C374.327 120.5 406.095 97.4043 402.252 88.6988C401.198 86.3016 397.523 85.1617 391.621 85.1617C376.069 85.1617 345.056 93.0871 305.83 106.858Z" fill="url(#paint11_linear)"/>
<path d="M717.546 255.527C690.293 367.327 665.358 513.137 523.523 525.891C467.107 530.958 414.409 520.166 363.883 509.367C261.331 487.455 167.724 465.542 70.1293 576.336C8.4053 646.405 -15.7638 742.425 -68.0534 818.597C-174.084 973.04 -268.004 879.324 -372 809.766V1334.68C-202.554 1347.46 -159.05 1244.4 -87.7095 1135.67C-0.956116 1003.45 23.8253 767.954 300.606 821.667C577.307 875.364 602.154 759.743 743.465 172.188C732.835 198.548 724.618 226.505 717.546 255.527Z" fill="url(#paint12_linear)"/>
<path d="M57.9825 386.631L61.6044 393.253C62.8581 395.547 64.7456 397.435 67.0392 398.692L73.6599 402.311C73.9164 402.45 73.9164 402.817 73.6599 402.956L67.0392 406.578C64.7456 407.832 62.8581 409.72 61.6044 412.014L57.9825 418.636C57.8436 418.892 57.4767 418.892 57.3378 418.636L53.7194 412.014C52.4622 409.72 50.5746 407.832 48.2811 406.578L41.6604 402.956C41.4075 402.817 41.4075 402.45 41.6604 402.311L48.2811 398.692C50.5746 397.435 52.4622 395.547 53.7194 393.253L57.3378 386.631C57.4767 386.378 57.8436 386.378 57.9825 386.631Z" fill="#EFEFEF"/>
<path d="M438.565 242.054L442.187 248.672C443.44 250.969 445.328 252.857 447.621 254.111L454.242 257.734C454.498 257.873 454.498 258.236 454.242 258.378L447.621 261.997C445.328 263.255 443.44 265.139 442.187 267.437L438.565 274.058C438.426 274.311 438.059 274.311 437.92 274.058L434.301 267.437C433.048 265.139 431.157 263.255 428.863 261.997L422.242 258.378C421.99 258.236 421.99 257.873 422.242 257.734L428.863 254.111C431.157 252.857 433.048 250.969 434.301 248.672L437.92 242.054C438.059 241.797 438.426 241.797 438.565 242.054Z" fill="#EFEFEF"/>
<path d="M198.214 314.502L199.987 317.747C200.603 318.873 201.529 319.795 202.655 320.412L205.896 322.186C206.02 322.253 206.02 322.435 205.896 322.503L202.655 324.276C201.529 324.893 200.603 325.815 199.987 326.941L198.214 330.186C198.146 330.31 197.968 330.31 197.9 330.186L196.123 326.941C195.507 325.815 194.584 324.893 193.459 324.276L190.215 322.503C190.09 322.435 190.09 322.253 190.215 322.186L193.459 320.412C194.584 319.795 195.507 318.873 196.123 317.747L197.9 314.502C197.968 314.378 198.146 314.378 198.214 314.502Z" fill="#EFEFEF"/>
<path d="M342.358 332.5L344.132 335.745C344.748 336.871 345.67 337.797 346.796 338.41L350.04 340.187C350.165 340.255 350.165 340.433 350.04 340.501L346.796 342.274C345.67 342.891 344.748 343.817 344.132 344.942L342.358 348.184C342.287 348.309 342.109 348.309 342.041 348.184L340.268 344.942C339.651 343.817 338.725 342.891 337.604 342.274L334.359 340.501C334.234 340.433 334.234 340.255 334.359 340.187L337.604 338.41C338.725 337.797 339.651 336.871 340.268 335.745L342.041 332.5C342.109 332.376 342.287 332.376 342.358 332.5Z" fill="#EFEFEF"/>
<path d="M454.438 510.617C454.438 512.622 452.81 514.25 450.805 514.25C448.8 514.25 447.176 512.622 447.176 510.617C447.176 508.615 448.8 506.984 450.805 506.984C452.81 506.984 454.438 508.615 454.438 510.617Z" fill="#EFEFEF"/>
<path d="M57.6651 116.035C57.6651 118.04 56.0375 119.668 54.0324 119.668C52.0273 119.668 50.4033 118.04 50.4033 116.035C50.4033 114.029 52.0273 112.402 54.0324 112.402C56.0375 112.402 57.6651 114.029 57.6651 116.035Z" fill="#EFEFEF"/>
<path d="M549.344 297.089C549.344 299.095 547.72 300.723 545.711 300.723C543.706 300.723 542.082 299.095 542.082 297.089C542.082 295.084 543.706 293.456 545.711 293.456C547.72 293.456 549.344 295.084 549.344 297.089Z" fill="#EFEFEF"/>
<path d="M380.719 147.044C380.719 149.05 379.091 150.678 377.086 150.678C375.081 150.678 373.457 149.05 373.457 147.044C373.457 145.039 375.081 143.411 377.086 143.411C379.091 143.411 380.719 145.039 380.719 147.044Z" fill="#EFEFEF"/>
<path d="M52.7104 606.491C52.7104 607.984 51.5031 609.191 50.0144 609.191C48.5257 609.191 47.3184 607.984 47.3184 606.491C47.3184 605.002 48.5257 603.795 50.0144 603.795C51.5031 603.795 52.7104 605.002 52.7104 606.491Z" fill="#EFEFEF"/>
<path d="M41.3075 609.781C42.4685 610.715 42.6573 612.41 41.7277 613.571C40.7946 614.736 39.0994 614.921 37.9348 613.995C36.7738 613.062 36.585 611.363 37.5181 610.202C38.4477 609.037 40.1429 608.848 41.3075 609.781Z" fill="#EFEFEF"/>
<path d="M545.711 586.412C545.711 588.414 544.087 590.045 542.078 590.045C540.073 590.045 538.449 588.414 538.449 586.412C538.449 584.406 540.073 582.778 542.078 582.778C544.087 582.778 545.711 584.406 545.711 586.412Z" fill="#EFEFEF"/>
<path d="M455.768 485.881C455.768 486.622 455.17 487.221 454.433 487.221C453.692 487.221 453.094 486.622 453.094 485.881C453.094 485.144 453.692 484.546 454.433 484.546C455.17 484.546 455.768 485.144 455.768 485.881Z" fill="#EFEFEF"/>
<path d="M531.19 576.059C531.19 576.885 530.521 577.559 529.691 577.559C528.861 577.559 528.191 576.885 528.191 576.059C528.191 575.233 528.861 574.559 529.691 574.559C530.521 574.559 531.19 575.233 531.19 576.059Z" fill="#EFEFEF"/>
<path d="M553.921 565.713C553.921 566.54 553.251 567.213 552.421 567.213C551.591 567.213 550.922 566.54 550.922 565.713C550.922 564.887 551.591 564.214 552.421 564.214C553.251 564.214 553.921 564.887 553.921 565.713Z" fill="#EFEFEF"/>
<path d="M31.0202 603.799C31.0202 604.626 30.3507 605.299 29.5209 605.299C28.691 605.299 28.0215 604.626 28.0215 603.799C28.0215 602.973 28.691 602.3 29.5209 602.3C30.3507 602.3 31.0202 602.973 31.0202 603.799Z" fill="#EFEFEF"/>
<path d="M140.769 255.782C141.934 256.712 142.119 258.411 141.189 259.572C140.256 260.737 138.561 260.922 137.4 259.992C136.235 259.063 136.047 257.364 136.98 256.202C137.909 255.038 139.608 254.849 140.769 255.782Z" fill="#EFEFEF"/>
<path d="M437.473 373.491C439.596 375.19 439.938 378.285 438.239 380.404C436.54 382.524 433.449 382.866 431.326 381.17C429.207 379.471 428.865 376.376 430.564 374.257C432.259 372.137 435.354 371.792 437.473 373.491Z" fill="#EFEFEF"/>
<path d="M552.422 76.8578C552.422 77.6842 551.752 78.3574 550.922 78.3574C550.092 78.3574 549.423 77.6842 549.423 76.8578C549.423 76.0314 550.092 75.3582 550.922 75.3582C551.752 75.3582 552.422 76.0314 552.422 76.8578Z" fill="#EFEFEF"/>
<path d="M448.925 62.3832C448.925 63.2132 448.256 63.8828 447.426 63.8828C446.596 63.8828 445.927 63.2132 445.927 62.3832C445.927 61.5568 446.596 60.8836 447.426 60.8836C448.256 60.8836 448.925 61.5568 448.925 62.3832Z" fill="#EFEFEF"/>
<path d="M146.511 242.487C146.511 243.313 145.842 243.986 145.012 243.986C144.186 243.986 143.513 243.313 143.513 242.487C143.513 241.657 144.186 240.987 145.012 240.987C145.842 240.987 146.511 241.657 146.511 242.487Z" fill="#EFEFEF"/>
<path d="M437.138 405.382C437.138 406.892 435.913 408.117 434.403 408.117C432.893 408.117 431.668 406.892 431.668 405.382C431.668 403.871 432.893 402.646 434.403 402.646C435.913 402.646 437.138 403.871 437.138 405.382Z" fill="#EFEFEF"/>
<path d="M76.6911 102.225C76.6911 103.051 76.0216 103.725 75.1918 103.725C74.3619 103.725 73.6924 103.051 73.6924 102.225C73.6924 101.399 74.3619 100.725 75.1918 100.725C76.0216 100.725 76.6911 101.399 76.6911 102.225Z" fill="#EFEFEF"/>
</g>
<defs>
<linearGradient id="paint0_linear" x1="48.6744" y1="961.974" x2="784.727" y2="-135.654" gradientUnits="userSpaceOnUse">
<stop stop-color="#292262"/>
<stop offset="0.0001" stop-color="#292262"/>
<stop offset="0.311821" stop-color="#023A93"/>
<stop offset="1" stop-color="#292262"/>
</linearGradient>
<linearGradient id="paint1_linear" x1="124.375" y1="610" x2="399.638" y2="489.427" gradientUnits="userSpaceOnUse">
<stop stop-color="#FF17D0"/>
<stop offset="1" stop-color="#FFD394"/>
</linearGradient>
<linearGradient id="paint2_linear" x1="504.634" y1="232.62" x2="650.352" y2="172.271" gradientUnits="userSpaceOnUse">
<stop stop-color="#9796FE"/>
<stop offset="0.992708" stop-color="#FF7DFF"/>
<stop offset="1" stop-color="#FF7DFF"/>
</linearGradient>
<linearGradient id="paint3_linear" x1="504.629" y1="232.639" x2="585.969" y2="198.952" gradientUnits="userSpaceOnUse">
<stop stop-color="#9796FE"/>
<stop offset="0.992708" stop-color="#FF7DFF"/>
<stop offset="1" stop-color="#FF7DFF"/>
</linearGradient>
<linearGradient id="paint4_linear" x1="522.172" y1="264.434" x2="661.812" y2="206.602" gradientUnits="userSpaceOnUse">
<stop stop-color="#9796FE"/>
<stop offset="0.992708" stop-color="#FF7DFF"/>
<stop offset="1" stop-color="#FF7DFF"/>
</linearGradient>
<linearGradient id="paint5_linear" x1="586.795" y1="255.511" x2="660.464" y2="225.001" gradientUnits="userSpaceOnUse">
<stop stop-color="#9796FE"/>
<stop offset="0.992708" stop-color="#FF7DFF"/>
<stop offset="1" stop-color="#FF7DFF"/>
</linearGradient>
<linearGradient id="paint6_linear" x1="504.2" y1="231.565" x2="649.379" y2="171.439" gradientUnits="userSpaceOnUse">
<stop stop-color="#9796FE"/>
<stop offset="0.992708" stop-color="#FF7DFF"/>
<stop offset="1" stop-color="#FF7DFF"/>
</linearGradient>
<linearGradient id="paint7_linear" x1="496.353" y1="189.644" x2="627.006" y2="135.534" gradientUnits="userSpaceOnUse">
<stop stop-color="#9796FE"/>
<stop offset="0.992708" stop-color="#FF7DFF"/>
<stop offset="1" stop-color="#FF7DFF"/>
</linearGradient>
<linearGradient id="paint8_linear" x1="135.424" y1="206.44" x2="317.144" y2="126.271" gradientUnits="userSpaceOnUse">
<stop stop-color="#ED1771"/>
<stop offset="0.304312" stop-color="#ED1771"/>
<stop offset="0.984155" stop-color="#FF9692"/>
<stop offset="0.989054" stop-color="#FF9692"/>
<stop offset="1" stop-color="#FF9692"/>
</linearGradient>
<linearGradient id="paint9_linear" x1="128.953" y1="217.867" x2="320.802" y2="104.223" gradientUnits="userSpaceOnUse">
<stop stop-color="#FF327E"/>
<stop offset="0.304312" stop-color="#FF327E"/>
<stop offset="0.984155" stop-color="#FFBF97"/>
<stop offset="0.989054" stop-color="#FFBF97"/>
<stop offset="1" stop-color="#FFBF97"/>
</linearGradient>
<linearGradient id="paint10_linear" x1="135.405" y1="206.416" x2="236.842" y2="161.665" gradientUnits="userSpaceOnUse">
<stop stop-color="#9796FE"/>
<stop offset="0.992708" stop-color="#FF7DFF"/>
<stop offset="1" stop-color="#FF7DFF"/>
</linearGradient>
<linearGradient id="paint11_linear" x1="75.1259" y1="211.706" x2="434.889" y2="103.773" gradientUnits="userSpaceOnUse">
<stop stop-color="#FF75A4"/>
<stop offset="1" stop-color="#FFE76F"/>
</linearGradient>
<linearGradient id="paint12_linear" x1="249.871" y1="1089.16" x2="125.111" y2="706.5" gradientUnits="userSpaceOnUse">
<stop stop-color="#E2BAE7"/>
<stop offset="0.0197136" stop-color="#E2BAE7"/>
<stop offset="1" stop-color="#EFEFEF"/>
</linearGradient>
<clipPath id="clip0">
<rect width="663" height="663" rx="331.5" fill="white"/>
</clipPath>
</defs>
</svg>
