<svg width="60" height="58" viewBox="0 0 60 58" fill="none" xmlns="http://www.w3.org/2000/svg">
<path d="M18.4836 26.6425C20.946 26.6097 23.3993 27.5963 25.6403 29.0917C29.1151 31.41 32.8154 33.1262 37.0199 33.6161C41.2259 34.106 45.0795 33.2446 48.5976 30.8221C50.2283 29.6993 51.9828 28.7198 53.7761 27.8717C54.955 27.3141 56.3047 27.4019 57.5314 27.9689C59.6459 28.9462 60.4117 31.2413 59.4004 33.4679C58.0032 36.5441 54.3951 38.1472 51.1492 37.0761C49.7896 36.6275 48.4391 36.122 47.145 35.5159C43.6529 33.8816 40.108 33.9918 36.5651 35.1879C33.1411 36.3442 29.7872 37.7034 26.3624 38.8568C22.9644 40.0008 19.4791 40.7216 15.8623 40.0351C13.0547 39.502 11.0389 37.4685 10.5065 34.7177C10.0023 32.1139 11.2045 29.3233 13.4658 27.849C14.7452 27.0147 16.2471 26.6294 18.4836 26.6425Z" fill="#02569C"/>
<path d="M42.1675 31.4692C39.722 31.3646 37.5914 30.4879 35.5206 29.3539C33.0917 28.0237 30.7276 26.4974 28.1553 25.5194C21.6545 23.0481 15.5215 23.9561 9.92618 28.131C8.52669 29.1748 7.00747 30.0315 5.26423 30.3286C3.1603 30.6871 1.19115 29.7519 0.371488 28.1339C-0.438761 26.5346 0.111321 24.2484 1.68137 22.6915C3.88583 20.5058 6.83993 19.9909 9.98379 21.2448C11.5369 21.8643 13.0554 22.5943 14.6502 23.0794C17.863 24.0574 21.0502 23.627 24.1771 22.5876C28.2603 21.2299 32.301 19.7322 36.431 18.5319C39.0353 17.7747 41.7597 17.3946 44.5018 18.1042C47.486 18.8763 49.4288 21.0642 49.5971 23.913C49.7903 27.1809 48.1306 29.823 45.131 30.8527C44.1848 31.1774 43.1577 31.2701 42.1675 31.4692Z" fill="#035591"/>
<path d="M26.0818 8.26129C29.2237 8.29591 32.0702 9.33086 34.8503 10.6424C37.5186 11.9011 40.1757 13.1948 42.902 14.3202C44.7243 15.0726 46.6994 15.0831 48.6565 14.8236C49.3388 14.7331 50.024 14.6601 50.7014 14.5429C52.8667 14.1676 54.643 14.8452 56.1182 16.4222C57.605 18.0115 58.8193 19.7485 59.1905 21.935C59.3524 22.8877 59.4191 23.8954 58.4616 24.5011C57.5124 25.1016 56.4653 24.8608 55.6897 24.2208C54.4597 23.206 53.3125 22.0746 52.2417 20.8933C50.7247 19.2195 49.3294 17.443 47.3241 16.2736C44.9908 14.9129 42.4596 14.9885 39.9049 15.1944C36.0201 15.5071 32.3431 16.6489 28.6902 17.9147C25.5531 19.0021 22.3999 20.0829 19.0034 19.9727C18.172 19.9459 17.3241 19.8558 16.5207 19.6517C13.995 19.011 13.1249 16.9702 14.4397 14.726C16.4115 11.3602 19.3486 9.28768 23.2293 8.58294C24.1683 8.41244 25.1303 8.36516 26.0818 8.26129Z" fill="#023A93"/>
<path d="M33.9758 49.7758C30.6772 49.7944 27.2864 48.2803 23.8831 46.6754C21.3571 45.4837 18.7471 44.394 16.0683 43.6182C14.5498 43.1785 12.8171 43.4603 11.1808 43.4246C11.0034 43.4209 10.8238 43.4629 10.6469 43.4912C8.59642 43.8185 6.54369 43.9715 4.81061 42.5635C2.72889 40.8726 1.1675 38.8123 0.679171 36.1069C0.51313 35.1866 0.628341 34.3304 1.4032 33.68C2.17956 33.0285 2.97626 33.3308 3.76504 33.6528C5.375 34.3107 6.5113 35.5299 7.53315 36.8545C9.08475 38.8652 10.732 40.7337 13.0257 41.9965C14.5878 42.8565 16.2234 43.1264 17.9455 43.1093C22.403 43.0642 26.6275 41.9034 30.8331 40.5557C33.5857 39.6738 36.3941 38.8887 39.236 38.3809C40.7699 38.1065 42.4695 38.315 44.0169 38.6515C45.8554 39.051 46.6028 40.5517 46.1043 42.3531C45.3682 45.015 43.4074 46.7067 41.1449 48.0681C39.1366 49.2765 36.9111 49.8368 33.9758 49.7758Z" fill="#023A93"/>
<path d="M38.1284 1.5896C42.6943 1.71878 46.5991 3.22133 49.3909 6.97732C50.2151 8.08562 50.7757 9.29629 50.1278 10.6953C49.479 12.097 48.2659 12.6245 46.7881 12.6871C44.0102 12.8051 41.482 11.8773 39.0226 10.7713C36.6303 9.69464 34.3505 8.35329 31.9141 7.39428C28.0748 5.88243 24.1286 5.28789 20.1109 6.91217C17.5939 7.93037 15.6086 9.66448 13.589 11.3878C11.7618 12.9469 9.8815 14.4551 7.93005 15.8575C7.23953 16.3541 6.29185 16.5842 5.4255 16.739C3.96126 17.0007 3.16983 15.9993 3.74552 14.6352C4.6834 12.4127 6.40405 10.886 8.479 9.71362C11.3002 8.1195 14.4128 7.36934 17.548 6.713C22.3289 5.71267 27.0055 4.37393 31.6061 2.74443C33.6969 2.00321 35.8716 1.5628 38.1284 1.5896Z" fill="#0C0082"/>
<path d="M22.7615 56.5161C17.3296 56.3534 13.3645 54.769 10.5019 50.9534C9.41684 49.5071 9.35095 48.1118 10.2365 46.8382C10.7885 46.0437 11.5837 45.6833 12.5118 45.588C15.1936 45.3118 17.7885 45.7448 20.2242 46.8311C22.6481 47.9122 24.9727 49.2089 27.3786 50.3324C29.4762 51.3123 31.704 51.9102 34.0248 52.0855C38.7146 52.4403 42.5117 50.5711 45.8208 47.4476C47.8747 45.5091 49.8664 43.4723 52.4271 42.1626C53.1545 41.7903 53.9843 41.5316 54.7953 41.4222C55.8785 41.2755 56.4245 41.9158 56.2629 42.9902C55.9994 44.7463 54.8917 45.9644 53.5645 47.0385C51.3371 48.8411 48.7245 49.8649 45.9925 50.58C42.4639 51.5037 38.8836 52.2378 35.3651 53.195C32.5696 53.9555 29.8564 55.0098 27.0623 55.776C25.4328 56.2228 23.7163 56.359 22.7615 56.5161Z" fill="#0C0082"/>
<path d="M17.402 5.29834C16.8794 5.25069 16.4566 5.24771 16.0496 5.16841C14.963 4.95658 14.7058 4.24254 15.5168 3.4935C16.1414 2.91683 16.882 2.43807 17.6313 2.02186C19.693 0.875588 21.937 0.276581 24.2819 0.0409245C24.637 0.00518513 25.024 -0.0383725 25.352 0.0628891C25.803 0.202124 26.5218 0.426984 26.5662 0.703592C26.6333 1.11571 26.3366 1.77131 25.9781 2.03526C23.4073 3.92647 20.5071 5.01391 17.402 5.29834Z" fill="#292262"/>
<path d="M45.0322 53.5051C45.4659 54.3394 44.5442 54.8386 43.9177 55.2622C41.3371 57.006 36.3122 58.449 34.7742 57.8701C34.075 57.6069 33.8472 56.6717 34.3434 56.1181C34.38 56.0779 34.4184 56.0407 34.4602 56.0068C35.2162 55.3966 36.063 54.8594 36.9466 54.4488C38.8793 53.5505 44.7882 53.036 45.0322 53.5051Z" fill="#292262"/>
</svg>
