<svg width="149" height="26" viewBox="0 0 149 26" fill="none" xmlns="http://www.w3.org/2000/svg">
<path d="M17.5617 18.397C17.5617 19.7305 17.2304 20.9132 16.5678 21.9452C15.9055 22.9776 14.9409 23.7862 13.6743 24.3718C12.4077 24.957 10.8599 25.25 9.03003 25.25C7.42346 25.25 5.9193 25.0006 4.51793 24.5021C3.11656 24.0036 1.90571 23.2732 0.885742 22.3104L2.36317 20.6407C3.18396 21.4177 4.13992 22.0409 5.23067 22.5103C6.32141 22.9802 7.62866 23.2151 9.15314 23.2151C10.1852 23.2151 11.1645 23.0412 12.0911 22.6931C13.0173 22.3451 13.7737 21.8119 14.3603 21.0931C14.9465 20.3742 15.2398 19.458 15.2398 18.3448C15.2398 17.5098 15.0817 16.7995 14.765 16.2143C14.448 15.6286 13.8851 15.1071 13.076 14.6488C12.2669 14.1909 11.1294 13.7527 9.66331 13.3354C8.16217 12.9065 6.82518 12.4166 5.65273 11.8656C4.47991 11.315 3.55971 10.6192 2.89103 9.77855C2.22273 8.93792 1.88839 7.87393 1.88839 6.58657C1.88839 5.47343 2.196 4.47087 2.81197 3.57775C3.42756 2.68464 4.29203 1.97767 5.4065 1.45572C6.52059 0.933777 7.82783 0.672806 9.32935 0.672806C10.9359 0.672806 12.3286 0.899155 13.5071 1.35111C14.6856 1.80344 15.7733 2.45308 16.7703 3.29928L15.2575 4.93436C14.378 4.14586 13.4307 3.57775 12.4164 3.22966C11.402 2.88195 10.373 2.70809 9.32935 2.70809C8.40276 2.70809 7.54658 2.84993 6.7608 3.13399C5.9754 3.41841 5.34174 3.84468 4.86131 4.41279C4.38013 4.9809 4.13992 5.70574 4.13992 6.58657C4.13992 7.3289 4.33909 7.96961 4.73781 8.50868C5.13654 9.04812 5.80823 9.54103 6.75214 9.9874C7.69605 10.4338 8.97167 10.8891 10.5782 11.3526C11.7507 11.6772 12.8708 12.0916 13.9378 12.596C15.0049 13.1005 15.8757 13.8082 16.5504 14.7184C17.2244 15.6286 17.5617 16.855 17.5617 18.397Z" fill="#23176B"/>
<path d="M32.3052 3.05684V24.9033H30.0709V3.05684H22.2783V1.00443H40.1332L39.8869 3.05684H32.3052Z" fill="#23176B"/>
<path d="M49.3687 2.98516V11.7339H58.516V13.7692H49.3687V22.9702H60.6444V24.9009H47.1172V1.002H60.2401L59.9411 2.98516H49.3687Z" fill="#23176B"/>
<path d="M69.2451 24.9033V1.00443H71.4966V22.7467H82.702L82.4207 24.9033H69.2451Z" fill="#02569C"/>
<path d="M92.7105 2.98516V11.7339H101.858V13.7692H92.7105V22.9702H103.986V24.9009H90.459V1.002H103.582L103.283 2.98516H92.7105Z" fill="#23176B"/>
<path d="M109.443 1.00443H112.134L117.939 10.6407L123.744 1.00443H126.207L119.223 12.0148L127.104 24.9033H124.413L117.869 13.5974L111.202 24.9033H108.757L116.567 12.1536L109.443 1.00443Z" fill="#23176B"/>
<path d="M140.75 15.6127V24.9009H138.463V15.6477L130.213 1.002H132.711L139.66 13.4732L146.696 1.002H149L140.75 15.6127Z" fill="#23176B"/>
</svg>
