<svg width="26" height="26" viewBox="0 0 26 26" fill="none" xmlns="http://www.w3.org/2000/svg">
<path d="M17.2229 15.4371C16.7946 16.178 16.1789 16.7931 15.4377 17.2207C14.6965 17.6483 13.8559 17.8735 13.0001 17.8735C12.1444 17.8735 11.3038 17.6484 10.5625 17.2207C9.82134 16.7931 9.20567 16.178 8.77734 15.4372" stroke="#02569C" stroke-width="1.5" stroke-linecap="round" stroke-linejoin="round"/>
<path d="M15.8656 22.3221C13.7873 22.9594 11.5555 22.8831 9.5256 22.1054C7.49566 21.3276 5.78425 19.8932 4.66384 18.0303C3.54343 16.1675 3.07842 13.9833 3.34285 11.8257C3.60728 9.66797 4.58594 7.66077 6.12303 6.1236C7.66013 4.58644 9.66728 3.60768 11.825 3.34315C13.9826 3.07862 16.1668 3.54352 18.0297 4.66385C19.8926 5.78417 21.3271 7.49551 22.105 9.52542C22.8828 11.5553 22.9592 13.7871 22.322 15.8654L15.8656 22.3221Z" stroke="#02569C" stroke-width="1.5" stroke-linecap="round" stroke-linejoin="round"/>
<path d="M9.34375 11.9844C9.90466 11.9844 10.3594 11.5297 10.3594 10.9688C10.3594 10.4078 9.90466 9.95312 9.34375 9.95312C8.78284 9.95312 8.32812 10.4078 8.32812 10.9688C8.32812 11.5297 8.78284 11.9844 9.34375 11.9844Z" fill="#02569C"/>
<path d="M16.6562 11.9844C17.2172 11.9844 17.6719 11.5297 17.6719 10.9688C17.6719 10.4078 17.2172 9.95312 16.6562 9.95312C16.0953 9.95312 15.6406 10.4078 15.6406 10.9688C15.6406 11.5297 16.0953 11.9844 16.6562 11.9844Z" fill="#02569C"/>
</svg>
