<svg width="26" height="26" viewBox="0 0 26 26" fill="none" xmlns="http://www.w3.org/2000/svg">
<path d="M15.4375 11.375H19.5" stroke="#02569C" stroke-width="1.5" stroke-linecap="round" stroke-linejoin="round"/>
<path d="M15.4375 14.625H19.5" stroke="#02569C" stroke-width="1.5" stroke-linecap="round" stroke-linejoin="round"/>
<path d="M9.354 14.625C10.7002 14.625 11.7915 13.5337 11.7915 12.1875C11.7915 10.8413 10.7002 9.75 9.354 9.75C8.00781 9.75 6.9165 10.8413 6.9165 12.1875C6.9165 13.5337 8.00781 14.625 9.354 14.625Z" stroke="#02569C" stroke-width="1.5" stroke-linecap="round" stroke-linejoin="round"/>
<path d="M6.20654 17.0625C6.38687 16.3648 6.79387 15.7468 7.36359 15.3056C7.9333 14.8644 8.63345 14.625 9.35403 14.625C10.0746 14.625 10.7748 14.8643 11.3445 15.3055C11.9143 15.7467 12.3213 16.3646 12.5017 17.0622" stroke="#02569C" stroke-width="1.5" stroke-linecap="round" stroke-linejoin="round"/>
<path d="M21.9375 4.875H4.0625C3.61377 4.875 3.25 5.23877 3.25 5.6875V20.3125C3.25 20.7612 3.61377 21.125 4.0625 21.125H21.9375C22.3862 21.125 22.75 20.7612 22.75 20.3125V5.6875C22.75 5.23877 22.3862 4.875 21.9375 4.875Z" stroke="#02569C" stroke-width="1.5" stroke-linecap="round" stroke-linejoin="round"/>
</svg>
