<svg width="30" height="30" viewBox="0 0 30 30" fill="none" xmlns="http://www.w3.org/2000/svg">
<path d="M24.6384 4.20513L2.80312 10.3638C2.61943 10.4156 2.45592 10.5223 2.33446 10.6695C2.213 10.8167 2.13936 10.9975 2.1234 11.1877C2.10744 11.3779 2.14991 11.5684 2.24513 11.7338C2.34036 11.8992 2.4838 12.0316 2.65629 12.1133L12.6888 16.8656C12.8845 16.9583 13.042 17.1158 13.1347 17.3115L17.887 27.344C17.9687 27.5165 18.1011 27.66 18.2665 27.7552C18.4319 27.8504 18.6224 27.8929 18.8126 27.8769C19.0028 27.861 19.1836 27.7873 19.3308 27.6659C19.4781 27.5444 19.5847 27.3809 19.6365 27.1972L25.7952 5.36192C25.8404 5.20152 25.8421 5.03197 25.8 4.87072C25.7579 4.70947 25.6736 4.56235 25.5558 4.44451C25.438 4.32667 25.2909 4.24237 25.1296 4.2003C24.9683 4.15822 24.7988 4.15989 24.6384 4.20513Z" stroke="#02569C" stroke-width="1.5" stroke-linecap="round" stroke-linejoin="round"/>
<path d="M12.9912 17.0084L18.2945 11.7051" stroke="#02569C" stroke-width="1.5" stroke-linecap="round" stroke-linejoin="round"/>
</svg>
