<svg width="24" height="24" viewBox="0 0 24 24" fill="none" xmlns="http://www.w3.org/2000/svg">
<path fill-rule="evenodd" clip-rule="evenodd" d="M9.93586 0C4.44844 0 0 4.35019 0 9.71642C0 15.0826 4.44844 19.4328 9.93586 19.4328C12.2811 19.4328 14.4366 18.6382 16.1361 17.3093L22.6923 23.7815L22.7782 23.8539C23.078 24.0708 23.5031 24.0462 23.7744 23.7801C24.0729 23.4875 24.0722 23.0137 23.773 22.7219L17.2551 16.2874C18.8799 14.5576 19.8717 12.2503 19.8717 9.71642C19.8717 4.35019 15.4233 0 9.93586 0ZM9.93672 1.49662C14.5789 1.49662 18.3422 5.17677 18.3422 9.71645C18.3422 14.2561 14.5789 17.9363 9.93672 17.9363C5.29451 17.9363 1.53125 14.2561 1.53125 9.71645C1.53125 5.17677 5.29451 1.49662 9.93672 1.49662Z" fill="#02569C"/>
</svg>
