<svg width="30" height="30" viewBox="0 0 30 30" fill="none" xmlns="http://www.w3.org/2000/svg">
<path d="M15 21.5625C18.6244 21.5625 21.5625 18.6244 21.5625 15C21.5625 11.3756 18.6244 8.4375 15 8.4375C11.3756 8.4375 8.4375 11.3756 8.4375 15C8.4375 18.6244 11.3756 21.5625 15 21.5625Z" stroke="#02569C" stroke-width="1.5" stroke-linecap="round" stroke-linejoin="round"/>
<path d="M25.3127 14.0627L26.5206 12.2509C26.5993 12.1342 26.6513 12.0016 26.673 11.8625C26.6947 11.7234 26.6855 11.5812 26.6461 11.4461C26.4182 10.6957 26.1179 9.96933 25.7493 9.27714C25.6818 9.15392 25.588 9.04712 25.4744 8.96437C25.3609 8.88163 25.2304 8.82497 25.0925 8.79845L22.9552 8.37096L21.6294 7.04516L21.2019 4.90782C21.1754 4.76983 21.1187 4.63941 21.036 4.52585C20.9532 4.4123 20.8464 4.31841 20.7232 4.25091C20.031 3.88244 19.3045 3.58217 18.5542 3.35432C18.419 3.31488 18.2769 3.30568 18.1378 3.32736C17.9987 3.34905 17.8661 3.40109 17.7493 3.4798L15.9377 4.68756H14.0627L12.251 3.4798C12.1343 3.40109 12.0017 3.34905 11.8626 3.32736C11.7235 3.30568 11.5813 3.31488 11.4462 3.35432C10.6958 3.58216 9.96943 3.88244 9.27721 4.2509C9.15397 4.31841 9.04716 4.41229 8.9644 4.52586C8.88165 4.63942 8.82499 4.76985 8.79847 4.90784L8.37109 7.04504L7.04517 8.37096L4.90795 8.79834C4.76997 8.82485 4.63954 8.88151 4.52598 8.96426C4.41243 9.04701 4.31854 9.15381 4.25103 9.27704C3.88251 9.96927 3.58219 10.6957 3.35431 11.4461C3.31488 11.5812 3.30568 11.7234 3.32737 11.8625C3.34906 12.0016 3.4011 12.1342 3.47981 12.2509L4.68757 14.0626V15.9376L3.47981 17.7492C3.4011 17.8659 3.34906 17.9985 3.32738 18.1376C3.30569 18.2767 3.31489 18.4189 3.35433 18.554C3.58214 19.3044 3.88241 20.0309 4.2509 20.7231C4.31841 20.8463 4.4123 20.9531 4.52585 21.0359C4.63941 21.1186 4.76983 21.1753 4.90781 21.2018L7.04517 21.6293L8.37097 22.9551L8.79836 25.0924C8.82488 25.2304 8.88153 25.3608 8.96428 25.4744C9.04703 25.588 9.15383 25.6818 9.27705 25.7494C9.96924 26.1179 10.6957 26.4181 11.446 26.646C11.5811 26.6854 11.7233 26.6946 11.8624 26.6729C12.0015 26.6512 12.1341 26.5992 12.2508 26.5205L14.0626 25.3127H15.9376L17.7493 26.5205C17.8661 26.5993 17.9987 26.6513 18.1378 26.673C18.2769 26.6947 18.419 26.6855 18.5542 26.646C19.3045 26.4182 20.0309 26.1179 20.7231 25.7495C20.8463 25.682 20.9531 25.5881 21.0359 25.4745C21.1186 25.361 21.1753 25.2305 21.2018 25.0926L21.6293 22.9552L22.9551 21.6293L25.0924 21.2019C25.2304 21.1754 25.3608 21.1187 25.4744 21.036C25.5879 20.9532 25.6818 20.8464 25.7493 20.7232C26.1179 20.031 26.4182 19.3046 26.6461 18.5543C26.6855 18.4191 26.6947 18.277 26.673 18.1379C26.6513 17.9988 26.5993 17.8662 26.5206 17.7494L25.3127 15.9377V14.0627Z" stroke="#02569C" stroke-width="1.5" stroke-linecap="round" stroke-linejoin="round"/>
</svg>
