<svg width="30" height="30" viewBox="0 0 30 30" fill="none" xmlns="http://www.w3.org/2000/svg">
<path d="M6.53777 21.4038L6.39751 23.5794C6.38744 23.7188 6.40824 23.8587 6.45841 23.9892C6.50859 24.1197 6.58691 24.2375 6.6878 24.3342C8.0362 25.6132 9.66789 26.5552 11.4497 27.0835C11.584 27.1225 11.7251 27.1314 11.8632 27.1096C12.0013 27.0879 12.1329 27.0359 12.2486 26.9575L14.0625 25.7483H15.9375L17.7515 26.9575C17.8672 27.036 17.9987 27.0879 18.1368 27.1097C18.2749 27.1315 18.4161 27.1226 18.5503 27.0835C20.3321 26.5553 21.9638 25.6132 23.3122 24.3342C23.4131 24.2375 23.4914 24.1197 23.5416 23.9892C23.5918 23.8588 23.6126 23.7188 23.6025 23.5794L23.4623 21.4039L24.3998 19.7801L26.354 18.8138C26.4798 18.7528 26.5905 18.6648 26.6784 18.5562C26.7663 18.4475 26.8292 18.3207 26.8625 18.185C27.296 16.3778 27.296 14.4937 26.8625 12.6864C26.8292 12.5507 26.7663 12.4239 26.6784 12.3153C26.5905 12.2066 26.4798 12.1186 26.354 12.0576L24.3998 11.0913L23.4623 9.4675L23.6026 7.29193C23.6127 7.15251 23.5919 7.01259 23.5417 6.88212C23.4915 6.75166 23.4132 6.63386 23.3123 6.53711C21.9639 5.25813 20.3322 4.31608 18.5504 3.78784C18.4161 3.74883 18.275 3.7399 18.1369 3.76167C17.9988 3.78345 17.8672 3.8354 17.7515 3.91383L15.9376 5.12303H14.0626L12.2486 3.91378C12.1329 3.83535 12.0014 3.78339 11.8633 3.76161C11.7252 3.73983 11.584 3.74876 11.4498 3.78777C9.66798 4.31602 8.0363 5.25809 6.68792 6.53709C6.58702 6.63382 6.50869 6.75162 6.45851 6.88208C6.40833 7.01255 6.38754 7.15247 6.39761 7.29189L6.53785 9.4674L5.60035 11.0912L3.64612 12.0575C3.52034 12.1185 3.40956 12.2065 3.32166 12.3152C3.23376 12.4238 3.17091 12.5506 3.13757 12.6863C2.70413 14.4936 2.70414 16.3777 3.1376 18.1849C3.17093 18.3206 3.23378 18.4474 3.32167 18.5561C3.40957 18.6648 3.52034 18.7527 3.64612 18.8137L5.60027 19.78L6.53777 21.4038Z" stroke="#02569C" stroke-width="1.5" stroke-linecap="round" stroke-linejoin="round"/>
<path d="M20.625 12.1875L13.75 18.75L10.3125 15.4688" stroke="#02569C" stroke-width="1.5" stroke-linecap="round" stroke-linejoin="round"/>
</svg>
