<svg width="22" height="22" viewBox="0 0 22 22" fill="none" xmlns="http://www.w3.org/2000/svg">
<path d="M15.125 4.8125H19.25" stroke="white" stroke-width="1.5" stroke-linecap="round" stroke-linejoin="round"/>
<path d="M17.1875 2.75V6.875" stroke="white" stroke-width="1.5" stroke-linecap="round" stroke-linejoin="round"/>
<path d="M2.66333 18.5617C3.50858 17.0987 4.72395 15.8838 6.18736 15.0392C7.65076 14.1946 9.31066 13.75 11.0003 13.75C12.69 13.75 14.3499 14.1947 15.8132 15.0393C17.2766 15.884 18.492 17.0988 19.3372 18.5619" stroke="white" stroke-width="1.5" stroke-linecap="round" stroke-linejoin="round"/>
<path d="M16.161 10.1563C15.7933 11.149 15.1469 12.0144 14.2993 12.6485C13.4518 13.2827 12.4392 13.6587 11.3831 13.7313C10.3271 13.8039 9.27254 13.5701 8.34617 13.0579C7.41979 12.5457 6.661 11.7769 6.16095 10.8439C5.6609 9.91097 5.44086 8.85345 5.52725 7.79845C5.61365 6.74344 6.00282 5.73582 6.648 4.89662C7.29317 4.05743 8.16693 3.42236 9.16429 3.06771C10.1616 2.71306 11.2402 2.65391 12.2703 2.89737" stroke="white" stroke-width="1.5" stroke-linecap="round" stroke-linejoin="round"/>
</svg>
