<svg width="30" height="30" viewBox="0 0 30 30" fill="none" xmlns="http://www.w3.org/2000/svg">
<path d="M15.0002 26.25C21.2134 26.25 26.2502 21.2132 26.2502 15C26.2502 8.7868 21.2134 3.75 15.0002 3.75C8.78704 3.75 3.75024 8.7868 3.75024 15C3.75024 21.2132 8.78704 26.25 15.0002 26.25Z" stroke="#02569C" stroke-width="1.5" stroke-linecap="round" stroke-linejoin="round"/>
<path d="M15.0002 17.8125V16.875C15.7419 16.875 16.4669 16.6551 17.0836 16.243C17.7003 15.831 18.181 15.2453 18.4648 14.5601C18.7486 13.8748 18.8229 13.1208 18.6782 12.3934C18.5335 11.666 18.1763 10.9978 17.6519 10.4734C17.1274 9.9489 16.4593 9.59175 15.7318 9.44706C15.0044 9.30236 14.2504 9.37662 13.5652 9.66045C12.88 9.94428 12.2943 10.4249 11.8822 11.0416C11.4702 11.6583 11.2502 12.3833 11.2502 13.125" stroke="#02569C" stroke-width="1.5" stroke-linecap="round" stroke-linejoin="round"/>
<path d="M15 22.7344C15.6472 22.7344 16.1719 22.2097 16.1719 21.5625C16.1719 20.9153 15.6472 20.3906 15 20.3906C14.3528 20.3906 13.8281 20.9153 13.8281 21.5625C13.8281 22.2097 14.3528 22.7344 15 22.7344Z" fill="#02569C"/>
</svg>
