<svg width="26" height="26" viewBox="0 0 26 26" fill="none" xmlns="http://www.w3.org/2000/svg">
<path d="M5.66607 18.55L5.54451 20.4355C5.53578 20.5563 5.55381 20.6776 5.59729 20.7906C5.64077 20.9037 5.70865 21.0058 5.79609 21.0896C6.9647 22.1981 8.37884 23.0145 9.9231 23.4723C10.0394 23.5061 10.1618 23.5139 10.2814 23.495C10.4011 23.4761 10.5151 23.4311 10.6154 23.3632L12.1875 22.3152H13.8125L15.3846 23.3632C15.4849 23.4312 15.5989 23.4762 15.7186 23.4951C15.8382 23.5139 15.9606 23.5062 16.0769 23.4724C17.6212 23.0146 19.0353 22.1981 20.2039 21.0897C20.2913 21.0058 20.3592 20.9037 20.4027 20.7907C20.4462 20.6776 20.4642 20.5563 20.4555 20.4355L20.334 18.5501L21.1465 17.1428L22.8401 16.3053C22.9491 16.2524 23.0451 16.1762 23.1213 16.082C23.1975 15.9878 23.252 15.878 23.2809 15.7603C23.6565 14.1941 23.6565 12.5612 23.2808 10.9949C23.252 10.8773 23.1975 10.7674 23.1213 10.6732C23.0451 10.579 22.9491 10.5028 22.8401 10.4499L21.1465 9.61246L20.334 8.20517L20.4556 6.31967C20.4643 6.19884 20.4463 6.07758 20.4028 5.96451C20.3593 5.85143 20.2914 5.74934 20.204 5.6655C19.0354 4.55704 17.6212 3.7406 16.077 3.2828C15.9607 3.24899 15.8383 3.24125 15.7186 3.26012C15.599 3.27899 15.4849 3.32401 15.3847 3.39198L13.8126 4.43996H12.1876L10.6155 3.39194C10.5152 3.32397 10.4012 3.27894 10.2815 3.26007C10.1619 3.24119 10.0395 3.24893 9.92317 3.28273C8.37892 3.74055 6.96479 4.55701 5.7962 5.66547C5.70875 5.74931 5.64087 5.8514 5.59738 5.96447C5.55389 6.07754 5.53587 6.19881 5.54459 6.31964L5.66614 8.20508L4.85364 9.61237L3.15997 10.4498C3.05096 10.5027 2.95495 10.5789 2.87877 10.6731C2.80259 10.7673 2.74812 10.8772 2.71923 10.9948C2.34358 12.5611 2.34359 14.194 2.71925 15.7602C2.74814 15.8779 2.80261 15.9877 2.87878 16.0819C2.95496 16.1761 3.05096 16.2524 3.15997 16.3052L4.85357 17.1427L5.66607 18.55Z" stroke="#02569C" stroke-width="1.5" stroke-linecap="round" stroke-linejoin="round"/>
<path d="M17.875 10.5625L11.9166 16.25L8.9375 13.4062" stroke="#02569C" stroke-width="1.5" stroke-linecap="round" stroke-linejoin="round"/>
</svg>
