<svg width="26" height="26" viewBox="0 0 26 26" fill="none" xmlns="http://www.w3.org/2000/svg">
<path d="M2.4375 5.66211H15.4375C16.2995 5.66211 17.1261 6.02592 17.7356 6.67351C18.3451 7.32109 18.6875 8.19941 18.6875 9.11523V19.4746C18.6875 19.7036 18.6019 19.9231 18.4495 20.085C18.2972 20.2469 18.0905 20.3379 17.875 20.3379H4.875C4.01305 20.3379 3.1864 19.9741 2.5769 19.3265C1.96741 18.6789 1.625 17.8006 1.625 16.8848V6.52539C1.625 6.29643 1.7106 6.07686 1.86298 5.91496C2.01535 5.75306 2.22201 5.66211 2.4375 5.66211V5.66211Z" stroke="#02569C" stroke-width="1.5" stroke-linecap="round" stroke-linejoin="round"/>
<path d="M18.6875 11.2734L24.375 7.82031V18.1797L18.6875 14.7266" stroke="#02569C" stroke-width="1.5" stroke-linecap="round" stroke-linejoin="round"/>
</svg>
