<svg width="38" height="38" viewBox="0 0 38 38" fill="none" xmlns="http://www.w3.org/2000/svg">
<path d="M32.0625 7.125H5.9375C5.28166 7.125 4.75 7.65666 4.75 8.3125V29.6875C4.75 30.3433 5.28166 30.875 5.9375 30.875H32.0625C32.7183 30.875 33.25 30.3433 33.25 29.6875V8.3125C33.25 7.65666 32.7183 7.125 32.0625 7.125Z" stroke="#02569C" stroke-width="1.5" stroke-linecap="round" stroke-linejoin="round"/>
<path d="M4.75 24.9375L12.2228 17.4648C12.3331 17.3545 12.464 17.267 12.608 17.2073C12.7521 17.1477 12.9065 17.1169 13.0625 17.1169C13.2184 17.1169 13.3728 17.1477 13.5169 17.2073C13.661 17.267 13.7919 17.3545 13.9022 17.4648L20.5353 24.0979C20.6456 24.2081 20.7765 24.2956 20.9205 24.3553C21.0646 24.415 21.219 24.4457 21.375 24.4457C21.5309 24.4457 21.6853 24.415 21.8294 24.3553C21.9735 24.2956 22.1044 24.2081 22.2147 24.0979L25.2853 21.0273C25.3956 20.917 25.5265 20.8295 25.6705 20.7698C25.8146 20.7102 25.969 20.6794 26.125 20.6794C26.2809 20.6794 26.4353 20.7102 26.5794 20.7698C26.7235 20.8295 26.8544 20.917 26.9647 21.0273L33.25 27.3126" stroke="#02569C" stroke-width="1.5" stroke-linecap="round" stroke-linejoin="round"/>
<path d="M23.1562 16.3281C23.976 16.3281 24.6406 15.6635 24.6406 14.8438C24.6406 14.024 23.976 13.3594 23.1562 13.3594C22.3365 13.3594 21.6719 14.024 21.6719 14.8438C21.6719 15.6635 22.3365 16.3281 23.1562 16.3281Z" fill="#02569C"/>
</svg>
