<svg width="38" height="38" viewBox="0 0 38 38" fill="none" xmlns="http://www.w3.org/2000/svg">
<path d="M26.7188 29.6875C29.0142 29.6875 30.875 27.8267 30.875 25.5312C30.875 23.2358 29.0142 21.375 26.7188 21.375C24.4233 21.375 22.5625 23.2358 22.5625 25.5312C22.5625 27.8267 24.4233 29.6875 26.7188 29.6875Z" stroke="#02569C" stroke-width="1.5" stroke-linecap="round" stroke-linejoin="round"/>
<path d="M7.71875 34.4375C10.0142 34.4375 11.875 32.5767 11.875 30.2812C11.875 27.9858 10.0142 26.125 7.71875 26.125C5.42332 26.125 3.5625 27.9858 3.5625 30.2812C3.5625 32.5767 5.42332 34.4375 7.71875 34.4375Z" stroke="#02569C" stroke-width="1.5" stroke-linecap="round" stroke-linejoin="round"/>
<path d="M30.875 11.875L11.875 16.625" stroke="#02569C" stroke-width="1.5" stroke-linecap="round" stroke-linejoin="round"/>
<path d="M11.875 30.2812V9.5L30.875 4.75V25.5312" stroke="#02569C" stroke-width="1.5" stroke-linecap="round" stroke-linejoin="round"/>
</svg>
