<svg width="38" height="38" viewBox="0 0 38 38" fill="none" xmlns="http://www.w3.org/2000/svg">
<path d="M3.5625 8.27539H22.5625C23.8223 8.27539 25.0305 8.80711 25.9213 9.75359C26.8121 10.7001 27.3125 11.9838 27.3125 13.3223V28.4629C27.3125 28.7975 27.1874 29.1184 26.9647 29.3551C26.742 29.5917 26.4399 29.7246 26.125 29.7246H7.125C5.86522 29.7246 4.65704 29.1929 3.76624 28.2464C2.87545 27.2999 2.375 26.0162 2.375 24.6777V9.53711C2.375 9.20248 2.50011 8.88156 2.72281 8.64494C2.94551 8.40832 3.24756 8.27539 3.5625 8.27539V8.27539Z" stroke="#02569C" stroke-width="1.5" stroke-linecap="round" stroke-linejoin="round"/>
<path d="M27.3125 16.4766L35.625 11.4297V26.5703L27.3125 21.5234" stroke="#02569C" stroke-width="1.5" stroke-linecap="round" stroke-linejoin="round"/>
</svg>
