<?xml version="1.0" encoding="UTF-8"?>
<svg xmlns="http://www.w3.org/2000/svg" xmlns:xlink="http://www.w3.org/1999/xlink" width="1024pt" height="1024pt" viewBox="0 0 1024 1024" version="1.1">
<g id="surface1">
<path style=" stroke:none;fill-rule:nonzero;fill:rgb(0.784314%,33.72549%,61.176471%);fill-opacity:1;" d="M 315.453125 470.378906 C 357.476562 469.800781 399.347656 487.21875 437.59375 513.617188 C 496.898438 554.550781 560.050781 584.847656 631.804688 593.496094 C 703.589844 602.148438 769.355469 586.9375 829.398438 544.167969 C 857.230469 524.347656 887.171875 507.054688 917.777344 492.078125 C 937.898438 482.234375 960.933594 483.785156 981.871094 493.796875 C 1017.957031 511.050781 1031.027344 551.570312 1013.765625 590.882812 C 989.921875 645.191406 928.34375 673.496094 872.945312 654.585938 C 849.742188 646.664062 826.695312 637.738281 804.609375 627.039062 C 745.007812 598.183594 684.511719 600.132812 624.042969 621.25 C 565.609375 641.664062 508.367188 665.660156 449.917969 686.023438 C 391.925781 706.222656 332.441406 718.945312 270.714844 706.828125 C 222.800781 697.414062 188.398438 661.511719 179.3125 612.945312 C 170.707031 566.976562 191.222656 517.707031 229.816406 491.679688 C 251.652344 476.949219 277.285156 470.148438 315.453125 470.378906 Z M 315.453125 470.378906 "/>
<path style=" stroke:none;fill-rule:nonzero;fill:rgb(1.176471%,33.333333%,56.862745%);fill-opacity:1;" d="M 719.660156 555.59375 C 677.921875 553.746094 641.558594 538.269531 606.21875 518.25 C 564.765625 494.761719 524.417969 467.816406 480.515625 450.550781 C 369.570312 406.917969 264.898438 422.949219 169.40625 496.65625 C 145.523438 515.085938 119.59375 530.210938 89.84375 535.457031 C 53.9375 541.785156 20.328125 525.273438 6.339844 496.707031 C -7.488281 468.472656 1.898438 428.109375 28.695312 400.621094 C 66.316406 362.035156 116.734375 352.941406 170.390625 375.082031 C 196.894531 386.019531 222.8125 398.90625 250.03125 407.472656 C 304.863281 424.738281 359.257812 417.140625 412.621094 398.789062 C 482.308594 374.816406 551.269531 348.375 621.753906 327.183594 C 666.203125 313.816406 712.699219 307.105469 759.496094 319.632812 C 810.425781 333.265625 843.585938 371.890625 846.457031 422.1875 C 849.753906 479.882812 821.429688 526.53125 770.234375 544.710938 C 754.085938 550.441406 736.558594 552.078125 719.660156 555.59375 Z M 719.660156 555.59375 "/>
<path style=" stroke:none;fill-rule:nonzero;fill:rgb(0.784314%,22.745098%,57.647059%);fill-opacity:1;" d="M 445.128906 145.855469 C 498.75 146.464844 547.332031 164.738281 594.777344 187.894531 C 640.316406 210.117188 685.664062 232.957031 732.195312 252.824219 C 763.292969 266.109375 797.003906 266.292969 830.402344 261.714844 C 842.050781 260.117188 853.742188 258.828125 865.304688 256.757812 C 902.257812 250.132812 932.574219 262.09375 957.75 289.9375 C 983.125 317.996094 1003.847656 348.664062 1010.183594 387.265625 C 1012.949219 404.085938 1014.085938 421.878906 997.746094 432.570312 C 981.546875 443.171875 963.675781 438.921875 950.4375 427.621094 C 929.445312 409.707031 909.867188 389.730469 891.589844 368.875 C 865.703125 339.324219 841.886719 307.960938 807.664062 287.3125 C 767.84375 263.289062 724.644531 264.625 681.042969 268.257812 C 614.742188 273.78125 551.988281 293.9375 489.644531 316.289062 C 436.105469 335.484375 382.292969 354.566406 324.324219 352.621094 C 310.136719 352.148438 295.664062 350.558594 281.953125 346.953125 C 238.847656 335.640625 224 299.613281 246.4375 259.988281 C 280.089844 200.566406 330.214844 163.976562 396.445312 151.535156 C 412.472656 148.523438 428.890625 147.6875 445.128906 145.855469 Z M 445.128906 145.855469 "/>
<path style=" stroke:none;fill-rule:nonzero;fill:rgb(0.784314%,22.745098%,57.647059%);fill-opacity:1;" d="M 579.855469 878.800781 C 523.558594 879.128906 465.6875 852.398438 407.605469 824.0625 C 364.496094 803.023438 319.949219 783.785156 274.230469 770.085938 C 248.316406 762.324219 218.746094 767.300781 190.820312 766.667969 C 187.792969 766.601562 184.726562 767.34375 181.707031 767.84375 C 146.710938 773.625 111.679688 776.324219 82.101562 751.464844 C 46.574219 721.613281 19.925781 685.238281 11.589844 637.472656 C 8.757812 621.226562 10.722656 606.109375 23.949219 594.625 C 37.199219 583.125 50.792969 588.460938 64.257812 594.144531 C 91.734375 605.761719 111.125 627.285156 128.566406 650.671875 C 155.046875 686.171875 183.160156 719.160156 222.304688 741.457031 C 248.964844 756.640625 276.878906 761.402344 306.269531 761.101562 C 382.34375 760.304688 454.441406 739.8125 526.21875 716.019531 C 573.195312 700.449219 621.125 686.585938 669.628906 677.621094 C 695.804688 672.777344 724.8125 676.457031 751.222656 682.398438 C 782.597656 689.453125 795.355469 715.945312 786.847656 747.75 C 774.285156 794.746094 740.820312 824.613281 702.207031 848.652344 C 667.929688 869.984375 629.949219 879.878906 579.855469 878.800781 Z M 579.855469 878.800781 "/>
<path style=" stroke:none;fill-rule:nonzero;fill:rgb(4.705882%,0%,50.980392%);fill-opacity:1;" d="M 650.726562 28.066406 C 728.648438 30.34375 795.292969 56.875 842.9375 123.1875 C 857.003906 142.753906 866.570312 164.128906 855.515625 188.828125 C 844.441406 213.574219 823.738281 222.886719 798.515625 223.992188 C 751.105469 226.078125 707.960938 209.695312 665.984375 190.167969 C 625.15625 171.160156 586.25 147.480469 544.667969 130.546875 C 479.144531 103.855469 411.792969 93.359375 343.226562 122.035156 C 300.269531 140.011719 266.386719 170.628906 231.917969 201.054688 C 200.734375 228.578125 168.644531 255.207031 135.339844 279.96875 C 123.554688 288.734375 107.382812 292.796875 92.59375 295.53125 C 67.605469 300.148438 54.097656 282.46875 63.921875 258.386719 C 79.929688 219.148438 109.296875 192.195312 144.707031 171.496094 C 192.855469 143.351562 245.976562 130.105469 299.484375 118.519531 C 381.078125 100.859375 460.894531 77.222656 539.410156 48.453125 C 575.09375 35.367188 612.207031 27.589844 650.726562 28.066406 Z M 650.726562 28.066406 "/>
<path style=" stroke:none;fill-rule:nonzero;fill:rgb(4.705882%,0%,50.980392%);fill-opacity:1;" d="M 388.464844 997.800781 C 295.757812 994.929688 228.085938 966.957031 179.234375 899.589844 C 160.714844 874.054688 159.589844 849.421875 174.703125 826.9375 C 184.125 812.910156 197.695312 806.546875 213.535156 804.863281 C 259.304688 799.988281 303.589844 807.632812 345.160156 826.8125 C 386.527344 845.898438 426.199219 868.792969 467.261719 888.628906 C 503.058594 905.925781 541.082031 916.484375 580.691406 919.578125 C 660.730469 925.84375 725.53125 892.839844 782.007812 837.695312 C 817.0625 803.472656 851.054688 767.511719 894.753906 744.386719 C 907.171875 737.816406 921.332031 733.246094 935.171875 731.316406 C 953.660156 728.726562 962.976562 740.03125 960.21875 759 C 955.722656 790.003906 936.816406 811.507812 914.167969 830.472656 C 876.152344 862.296875 831.566406 880.375 784.9375 893 C 724.71875 909.308594 663.613281 922.265625 603.5625 939.167969 C 555.855469 952.59375 509.550781 971.207031 461.863281 984.734375 C 434.054688 992.625 404.757812 995.027344 388.464844 997.800781 Z M 388.464844 997.800781 "/>
<path style=" stroke:none;fill-rule:nonzero;fill:rgb(16.078431%,13.333333%,38.431373%);fill-opacity:1;" d="M 296.992188 93.542969 C 288.074219 92.703125 280.859375 92.648438 273.914062 91.25 C 255.367188 87.507812 250.980469 74.902344 264.820312 61.679688 C 275.480469 51.496094 288.121094 43.042969 300.90625 35.695312 C 336.09375 15.457031 374.390625 4.882812 414.410156 0.722656 C 420.472656 0.0898438 427.078125 -0.675781 432.675781 1.109375 C 440.371094 3.570312 452.640625 7.539062 453.394531 12.421875 C 454.542969 19.699219 449.476562 31.273438 443.359375 35.933594 C 399.484375 69.324219 349.988281 88.519531 296.992188 93.542969 Z M 296.992188 93.542969 "/>
<path style=" stroke:none;fill-rule:nonzero;fill:rgb(16.078431%,13.333333%,38.431373%);fill-opacity:1;" d="M 768.550781 944.640625 C 775.953125 959.371094 760.222656 968.183594 749.527344 975.664062 C 705.488281 1006.449219 619.726562 1031.925781 593.480469 1021.707031 C 581.546875 1017.058594 577.660156 1000.546875 586.128906 990.773438 C 586.753906 990.066406 587.40625 989.410156 588.121094 988.808594 C 601.023438 978.035156 615.476562 968.550781 630.554688 961.304688 C 663.539062 945.441406 764.386719 936.359375 768.550781 944.640625 Z M 768.550781 944.640625 "/>
</g>
</svg>
